<svg xmlns="http://www.w3.org/2000/svg" viewBox="0 0 5.2 3.54">
  <path d="M4.29 2.15c-0.04,0.34 -0.19,0.66 -0.43,0.9 -0.89,0.89 -2.05,0.45 -2.55,-0.35l0.59 -0.29c0.31,0.47 0.99,0.71 1.51,0.19 0.2,-0.2 0.34,-0.4 0.37,-0.61l-0.79 0.46 -0.32 -0.56 1.62 -0.69 0.91 1.47 -0.55 0.33 -0.36 -0.85zm-2.51 -1.21c-0.18,0.18 -0.3,0.36 -0.35,0.55l0.78 -0.47 0.33 0.57 -1.63 0.69 -0.91 -1.48 0.56 -0.32 0.36 0.84c0.04,-0.31 0.19,-0.6 0.42,-0.83 0.86,-0.86 1.98,-0.48 2.5,0.29l-0.54 0.36c-0.31,-0.47 -0.99,-0.72 -1.52,-0.2z"/>
</svg>
