<svg xmlns="http://www.w3.org/2000/svg" viewBox="0 0 1.99 2.53">

  <path d="M0.12 0.32c-0.07,0.01 -0.12,0.02 -0.12,0.02 0,1.38 0.2,1.78 0.98,2.19 0.25,-0.13 0.45,-0.25 0.6,-0.41l-0.12 -0.14c-0.12,0.13 -0.28,0.23 -0.48,0.32 -0.64,-0.33 -0.81,-0.66 -0.81,-1.8 0,0 0.04,0 0.09,-0.01l-0.14 -0.17zm0.88 -0.32c-0.13,0.09 -0.3,0.16 -0.46,0.22l-0.14 -0.18 -0.15 0.13 1.57 1.94 0.15 -0.12 -0.17 -0.21c0.15,-0.32 0.19,-0.75 0.19,-1.42 0.01,0 -0.62,-0.09 -0.99,-0.36zm-0.02 2.14c-0.54,-0.28 -0.68,-0.56 -0.68,-1.52 0,0 0.02,-0.01 0.05,-0.01l1.03 1.27c-0.1,0.1 -0.23,0.18 -0.4,0.26zm-0.31 -1.76c0.12,-0.04 0.24,-0.09 0.33,-0.16 0.31,0.22 0.82,0.29 0.82,0.3 0,0.51 -0.04,0.86 -0.13,1.12l-0.09 -0.11c0.07,-0.22 0.09,-0.5 0.09,-0.9 0,0 -0.43,-0.06 -0.69,-0.25 -0.07,0.05 -0.15,0.09 -0.23,0.12l-0.1 -0.12z"/>

</svg>
