<svg xmlns="http://www.w3.org/2000/svg" viewBox="30 60 90 90">
    <path class="cls-1"
        d="M77.36,93.94c15.26,0,15.16,23.31.26,23.31C61.3,117.25,62,93.94,77.36,93.94Zm29.5,44.72a13.9,13.9,0,0,1-2.58,1.82l-.87-5.45.1-.09c3.95-3.55,4.07-9.57,1.79-16.44A88.62,88.62,0,0,1,81.5,127c-1.73.37-3.47.68-5.23,1a60.37,60.37,0,0,0,9.82,6.39,7.1,7.1,0,0,1,6.44-3.54c9.76,0,9.7,14.9.17,14.9-4.8,0-7.28-3.16-7.62-6.56a69.62,69.62,0,0,1-15.46-10.37,78.77,78.77,0,0,1-13,.14c1,8,4.47,12.74,8.9,14.19,3.82,1.24,8-.37,12-4l4.11,2.7c-5.41,5.39-11.47,8.09-17.62,6.09-7.89-2.57-11.46-10.16-12.24-19.55-9.35-1.6-16.45-5.66-18-13.07a16.38,16.38,0,0,1-.34-3.14c-6.84-2.81-5.43-14.29,3.16-14.29,9.12,0,9.66,13,1.91,14.71a8.65,8.65,0,0,0,.17,1.69c1,4.75,5.85,7.81,13,9.21A74.58,74.58,0,0,1,53,110.28c-9.75-14-14.77-29.56-6-37.48,5-4.48,11.38-4.88,18.14-2.77l-2,4.52c-5.55-1.44-10-.57-12.79,2-5.5,4.94-3.17,15.6,4.13,27.25.43-1.63.9-3.24,1.41-4.81,3.71-11.38,10-23.28,17.46-30.3-1.31-4.32,1.19-9.85,7.15-9.85,9.76,0,9.7,14.9.17,14.9a8.18,8.18,0,0,1-4.37-1.15c-6.39,6.11-12.14,16.89-15.73,27.92-1,3.06-1.79,5.94-2.42,8.68,1.87,2.54,4,5.1,6.22,7.62s4.51,4.77,6.87,6.93c3-.35,6.07-.85,9.21-1.52A85.36,85.36,0,0,0,103.54,114c-.53-1.16-1.11-2.35-1.74-3.53l3-4.7q1.62,2.81,2.92,5.63c5.8-4.1,9.17-8.9,8.09-14s-6.18-8.27-13.19-9.75a89.16,89.16,0,0,1-4.45,24.44l-5.75,1.63c.34-1,.67-1.91,1-2.9a86,86,0,0,0,4.43-23.9,83.07,83.07,0,0,0-24.75,1.7l-1.72.4L73,83.63A87.68,87.68,0,0,1,97.66,82c-.47-5.47-2-9.89-5-12.4l.89-5.44c5.67,3.16,8.36,10.06,8.92,18.51,9.33,1.72,16.54,5.92,18.18,13.66,1.59,7.53-3.22,14.22-11.12,19.55C112.76,124.92,112.77,133.34,106.86,138.66Zm-46.11-18.6c-1.3-1.45-2.57-2.94-3.79-4.47a56.13,56.13,0,0,0-.64,8.5,66.22,66.22,0,0,0,8.42.16C63.37,122.89,62,121.49,60.75,120.06Z" />
</svg>