<svg id="Слой_1" data-name="Слой 1" xmlns="http://www.w3.org/2000/svg" viewBox="0 0 150 190"><defs><style>.cls-1{fill-rule:evenodd;}</style></defs><title>Монтажная область 32</title><path class="cls-1" d="M110.71,110.05l-66.43,1L39,117.78l-3.39-2.43,4.43-6.84-4.13-6.66L39.25,99l5,6.64h1.45L67.17,64.24C68,52.46,84.56,57.31,78.32,65l-4-1.62c-1.22.27-1.7,1.43-1.85,2.7,0,7.38,25.68-.06,25.68,18.52,0,12-5.67,10.86-6.59,20.55l18.45-.21-.6-4.52L125,107l-13.6,8.2ZM68.81,70.49l-18.1,35.12,29.12-.33c1-9.11,8.4-12.5,8.4-20C88.23,74.77,73.79,77,68.81,70.49Zm-39.95,47L25,114.34l5-5.58-4-6.47,3.61-2.81,6.94,8.86Zm39.93,27.78c5-6.65,19.44-4.34,19.44-15.48,0-5.66-4.51-9.14-7-14.78l11.13-.1c1.86,5.45,5.77,6.07,5.77,15.63,0,18.89-25.67,11.66-25.67,18.57,0,1.57.48,2.81,1.84,3.32l4-1.61c6.25,7.69-10.4,11-11.15.65L47.9,115.26l5-.05Z"/></svg>