<svg xmlns="http://www.w3.org/2000/svg" viewBox="20 60 100 90">
    <path class="cls-1" d="M113.84,86.39a11.62,11.62,0,0,1,2.46,6.78c0,6.9-9.61,12.08-22.1,14.85-.67,7.15-2.26,12.36-5.75,17l1.44,8.64,22.83,8.19-1.16,4.79-76.64.2-1-4.84,24-8.64,1-8.89a31.86,31.86,0,0,1-5.32-11.09l5.23.25c2.17,7,6.18,11.53,13,16l4,.12C83.69,124.38,87.42,118.8,89,109a102.88,102.88,0,0,1-16.07,1.26C51,110.27,35.39,103.61,31.29,97c-1.7-2.72-2-5.64-.1-8.47l3,.79c-.62,1.26.11,4,.89,5.3,2.12,3.41,8.58,6.37,16.84,8.29-.12-1.55-.19-3.17-.24-4.86-7.21-1.66-12.46-5-12.46-11.4,0-2.52,1.62-6.11,9.34-8.92L50,81c-4.79,1.74-5.73,5-5.73,5.69,0,3.57,2.91,5.6,7.43,6.77C52,82.68,60,73.08,73.25,73.08c9.29,0,15.9,4.56,19.14,11.63a53,53,0,0,0,8.5-2.32A30.81,30.81,0,0,0,94,80.65l.58-3.8A38,38,0,0,1,105.74,80c1.8-1.18,2.74-2.33,2.74-3.25,0-3.69-12.78-10.46-33.67-10.46-18.15,0-30.59,3.94-33.08,8-.58,1-1.06,2.94-.52,4l-3.46,1.33A7.56,7.56,0,0,1,38,72c4-6.53,18.09-10.59,36.84-10.59,18.54,0,38.55,5.86,38.55,15.34,0,6.25-8.15,10.28-19.52,12.1a29.12,29.12,0,0,1,.81,6.93c0,2.54,0,4.87-.12,7.05,10.52-2.55,16.77-6.62,16.77-9.7a8.31,8.31,0,0,0-1.76-4.5ZM84,129.81a59.66,59.66,0,0,1-6.43,5l-7.28-.1a55.91,55.91,0,0,1-6.75-5.16c-.14,3-.34,7.11-.41,8.82-.25,5.78,21.85,5.88,21.34-.79C84.38,136,84.18,132.48,84,129.81ZM89.12,89.5A111.26,111.26,0,0,1,74.81,90V86.23a102.12,102.12,0,0,0,12.26-.71,17.32,17.32,0,0,0-13.83-7.21c-8.45,0-16.61,6.85-16.61,15.66v.37c6.89.86,15.68.71,23.82.92L81,99.21c-7.13.33-16.31.71-24.25-.28.07,1.78.17,3.45.31,5a97.34,97.34,0,0,0,15.86,1.32,97.78,97.78,0,0,0,16.65-1.37c.23-3,.33-6.24.33-9.93A14.11,14.11,0,0,0,89.12,89.5Z"/>
</svg>