<svg xmlns="http://www.w3.org/2000/svg" width="26.7676mm" height="26.759mm" version="1.1" 
viewBox="0 0 2661.67 2660.81">

 <g>
  <path class="fil0" d="M1371.65 2486.94c-1618.8,0 -1545.4,-2313.1 -26.31,-2313.1 1514.35,0.01 1504.89,2313.1 26.31,2313.1zm-27.88 -2148.4c-1303.09,0 -1365.71,1983.44 22.1,1983.44 1267.83,-0.53 1275.98,-1983.44 -22.1,-1983.44z"/>
  <path class="fil0" d="M0.86 1511.51l-0.86 -317.75 1006.98 -2.73c-42.56,106.27 -35.74,232.5 23.02,330.58l-1029.14 -10.09zm1146.8 -486.64l7.3 -1024.87 352.94 0 20.24 1028.41c-51.32,-32.23 -115.31,-51.62 -192.25,-51.62 -74.11,0 -136.93,17.96 -188.22,48.08zm510.35 164.39l1003.67 -2.72 0 351.07 -1030.25 -10.1c59.32,-99.44 68.53,-229.48 26.58,-338.24zm-118.11 437.03l20.35 1034.52 -424.22 -3.03 7.29 -1024c53.44,31.22 120.11,49.95 200.46,49.95 79.1,0 144.5,-21.7 196.12,-57.43z"/>
 </g>
</svg>
