<svg xmlns="http://www.w3.org/2000/svg" viewBox="35 58 80 90">
    <path d="M116.61,94.91,114.67,93,94.12,113.29c-.16.15-.34.3-.52.44L89,107.85a6.07,6.07,0,0,0,.66-.52l5.75-5.67-4.48-4.47-12.38-14L91.66,70.08l-2-2c0-4.81,3.94-13.18,9.41-7.7,5.3,5.3,16.69,17.13,24.5,24.94C130.49,92.26,121.9,94.91,116.61,94.91ZM97,75.38l-7.47,7.35c1.92,5.89,7.26,10.41,12.71,12.19l7.23-7.13ZM78.6,90.25c3.89,3.89,5.35,15.52,5.89,23L107.2,136l3.11-.59,3.88,4.93-8.65,8.84-5.11-4.11.49-3.76-22-21.82c-1.7-.11-3.65-.27-5.69-.51-.7.06-1.38.12-2,.16L48.33,141.89l.6,3.11L44,148.87l-8.84-8.64,4.11-5.11,3.76.48,18.78-19A15.49,15.49,0,0,1,56,113.38L35.4,92.71l-2,2.05c-4.82,0-13.19-3.94-7.71-9.41,5.3-5.3,17.14-16.69,25-24.5,7-7,9.62,1.62,9.62,6.91L58.3,69.7ZM60,107c2.41,2.41,7.48,3.46,11.37,3.92l4.72-5.53c-.45-3.9-1.41-8.66-3.42-10.67L67,89,54.52,101.46ZM53.1,74.92,40.7,87.39,48,94.86c5.89-1.92,10.42-7.26,12.2-12.71Z"/>
</svg>