<svg xmlns="http://www.w3.org/2000/svg" viewBox="0 0 7.32 9.27">

  <path  d="M3.61 7.87c-2,-1.04 -2.51,-2.08 -2.51,-5.61 0,0 1.67,-0.22 2.56,-0.86 0.96,0.69 2.56,0.91 2.56,0.91 0,3.54 -0.54,4.57 -2.61,5.56zm0.06 -7.87c-1.29,0.92 -3.67,1.25 -3.67,1.25 0,5.05 0.73,6.53 3.58,8.02 2.72,-1.3 3.6,-2.65 3.72,-6.76l-0.63 -0.12c-0.05,3.78 -0.72,4.94 -3.07,6.07 -2.36,-1.23 -2.96,-2.45 -2.96,-6.62 0,0 1.96,-0.27 3.02,-1.03 0.81,0.59 2.01,0.89 2.62,1.01l0.01 0 1.02 0.19c0.01,-0.22 0.01,-0.46 0.01,-0.7 0,-0.01 -2.29,-0.32 -3.65,-1.31z"/>
</svg>
