<svg xmlns="http://www.w3.org/2000/svg" viewBox="0 0 7.32 9.27">
 <g id="Layer_x0020_1">
  <g id="_1504147076240">
   <path d="M3.67 0c-1.29,0.92 -3.67,1.25 -3.67,1.25 0,5.05 0.73,6.53 3.58,8.02 2.97,-1.42 3.74,-2.89 3.74,-7.96 0,-0.01 -2.29,-0.32 -3.65,-1.31zm-0.01 0.81c-1.06,0.76 -3.02,1.03 -3.02,1.03 0,4.17 0.6,5.39 2.96,6.62 2.45,-1.18 3.08,-2.39 3.08,-6.57 0,0 -1.89,-0.26 -3.02,-1.08z"/>
   <path  d="M3.61 7.87c-2,-1.04 -2.51,-2.08 -2.51,-5.61 0,0 1.67,-0.22 2.56,-0.86 0.96,0.69 2.56,0.91 2.56,0.91 0,3.54 -0.54,4.57 -2.61,5.56z"/>
  </g>
 </g>
</svg>
