<svg xmlns="http://www.w3.org/2000/svg" viewBox="30 70 80 80">

    <path class="cls-1"
        d="M92.21,143.67c-6.51,4.39-12.07,5.19-20,3-9-2.45-17.3-4.86-25.47-7.07-6.17-1.67-9.18-7.69-9-15.22.18-10.22.21-17,.17-26.65,0-7.45,1-11.45,10.07-16.07,6.33-3.23,7.18-3.81,12.84-6.71,6.6-3.37,11.42-4.09,19.38-1.84,7.79,2.2,13.68,4.26,21.55,6.48,8.16,2.3,9.4,8,9.92,16.69.38,6.47.53,16.79.67,20.65.39,11.18-1.74,13.64-7.25,17.84C101,137.88,97.88,139.85,92.21,143.67ZM50,132c6.36,0,6.4-11.68-.11-11.68S43,132,50,132Zm.62-32c-6.53,0-6.84,11.69.12,11.69C57.05,111.73,57.09,100,50.58,100Zm18.88,38.12c6.35,0,6.39-11.68-.11-11.68S62.5,138.16,69.46,138.16Zm.25-21.78c6.35,0,6.4-11.68-.11-11.68S62.75,116.38,69.71,116.38Zm4-34.4c-8.22,0-8.61,7.61.14,7.61C81.82,89.59,81.87,82,73.68,82ZM91.35,121.4c-5.34,0-5.6,11.68.09,11.68C96.63,133.08,96.67,121.4,91.35,121.4ZM101.49,97c-5.34,0-5.6,11.69.09,11.69C106.78,108.67,106.81,97,101.49,97Z" />
</svg>