<svg xmlns="http://www.w3.org/2000/svg" viewBox="20 60 100 90">
<path class="cls-1"
    d="M120.84,141.31l-1.35,5.57-89.11.23-1.22-5.63,27.9-10,1.22-10.67a34.48,34.48,0,0,1-4.57-9.5c-8.23-8.5-7-19.57-2.66-19.93,0-1.77-.07-3.62-.07-5.54,0-12.84,8.2-24.47,24-24.47s23.7,11.25,23.7,26.44c0,1.23,0,2.42,0,3.57,4.56-.4,6.22,10.49-1.49,19.17a30.25,30.25,0,0,1-4.57,10.91l1.72,10.37Zm-32.32-5c-.16-1.95-.41-6.35-.59-9.52A62.77,62.77,0,0,1,80,133.1L71.53,133a58,58,0,0,1-8.3-6.48c-.17,3.5-.43,8.66-.52,10.73C62.42,144,89.13,144.08,88.52,136.32Zm4.9-50.94a18.49,18.49,0,1,0-37,0c0,24,2.88,32.51,16.81,41.54l4.73.14C91.28,118,93.42,109.2,93.42,85.38Z" />
</svg>