<svg xmlns="http://www.w3.org/2000/svg" viewBox="0 0 889.9 775.72">
    <path
        d="M663.07 319.5c43.86,2.61 167.63,17.78 222.21,24.64 -4.68,34.23 -13.18,67.86 -25.1,100.26 -53.24,-4.73 -178.06,-16.14 -212.55,-22.22 -51.13,-8.87 -40.98,-105.77 15.73,-102.39l-0.29 -0.29zm-50.63 -319.5l133.23 251.2c-66.47,40.67 -128.59,40.09 -179.99,-54.01 -18.95,3.84 -37.64,9.25 -55.74,16.02l-41.16 125.6 26.47 7.83 56.33 -91.01 23.67 16.71 -8.31 286.46 107.34 28.99 15.45 -32.45c0,0 -32.75,-6.38 -61.16,-13.43 -40.58,-10.14 -32.17,-90.62 19.32,-84.92 38.16,4.25 139.13,16.42 197.38,23.48 -32.36,67.9 -80.2,127.55 -139.43,173.91 -96.61,-1.16 -325.59,2.61 -325.59,2.61l-197.09 118.74 -183.17 -317.38 256.13 -144.92 148.5 -268.59 207.82 -44.83zm70.33 52.08l162.31 4.06c15.45,34.3 26.91,70.32 33.93,107.22l-140.97 -13.8 -55.27 -97.48zm128.5 241.54l-57.39 -105.69 131.49 14.01c2.97,23.35 4.52,47.07 4.52,70.66 0,11.83 -0.41,23.86 -1.15,35.62l-77.48 -14.59z" />

</svg>