<svg xmlns="http://www.w3.org/2000/svg" viewBox="0 0 614.61 498.65">
    <path
        d="M291.83 498.44c-81.78,4.5 -157.66,-63.94 -154.25,-101.18l186.22 -31.03 -4.19 -29.33c-22.24,2.33 -44.81,3.62 -67.23,3.62 -9.68,0 -19.52,-0.3 -29.13,-0.68 -62.07,-3.11 -201.73,-23.28 -192.73,-129.89l266.28 0.01 3.72 -28.71c0,0 -78.67,-11.95 -158.75,-24.67 -77.59,-12.26 -160.3,-60.37 -138.11,-156.58l506.51 67.04c-33.67,143.23 9.47,210.42 97.46,226.87l6.98 186.22 -122.9 -56.49c-58.43,42.89 -127.67,68.81 -199.87,74.8l-0.01 0z" />
</svg>