<svg xmlns="http://www.w3.org/2000/svg" viewBox="30 80 90 100">

    <path class="cls-1"
        d="M93.28,147.32c-13.53,0-31.07-.09-42.4-.09-20.35,0-22.62-27.28-6.25-33.19-.09-13.71,8.74-27.52,26.68-27.52,13.09,0,21.61,7.3,25.29,16.55C123.11,105.79,123.43,147.32,93.28,147.32Zm-1.16-37.14c-1.56-9-8.54-17.1-20.57-17.1-15.81,0-21.81,14.59-19.31,26.35-16.21,0-14.65,20.92-.46,20.92,10,0,30.06-.34,42.07-.34C114.82,140,114.59,108.11,92.12,110.18Zm12.69,52.12-58,.1-.07-6.84,58.32,0Zm-.44,14.21-57.47,0-.06-6.85,57.74.11Z" />
</svg>