<svg xmlns="http://www.w3.org/2000/svg" viewBox="30 60 90 90">

    <path class="cls-1"
        d="M119.05,108.8l-4.83,16.63-14-.91a30.28,30.28,0,0,1-5.54,6l1.11,14L79,148.67l-7-12.58c-.88-.16-1.78-.35-2.69-.59a47.74,47.74,0,0,1-6.32-2.14L50.5,141.42l-12-12.5,7.29-11.24a30.11,30.11,0,0,1-2.76-10L31,101.07l4.55-15.4,12.86.43A32.35,32.35,0,0,1,56,77.86L55.4,65.6,71,61.83,76.81,72a37.78,37.78,0,0,1,12.6,3.47l11.47-6.95,11.06,11.65-7.33,11.76a33.44,33.44,0,0,1,2,10.28ZM79.29,88.06c-21.24-5.59-31.75,27-7.2,33.45C92.78,127,100.94,93.76,79.29,88.06Z" />
</svg>