<svg xmlns="http://www.w3.org/2000/svg" viewBox="30 60 90 90">
    <path class="cls-1"
        d="M122,97c5.5-3,9.8,4.65,3.66,8a94,94,0,0,0-23.73,18.8c-6.17-5.15-12.41-12.35-15.22-17.33l-.84-25.93s8.46-12.71,11.75-16.8c4.35-5.39,10.93-.86,6.58,5.54C100.89,74.16,93,86.55,93,86.55l1.52,1.53s13.72-14.94,17.09-18.49c4.77-5,11.56.94,6.21,6.58-3.68,3.88-18.17,19.64-18.17,19.64L101,97.35s13.91-11.83,17.68-14.87c5.4-4.35,10.68,1.77,4.93,7-3.93,3.55-18,15.18-18,15.18l.84,1.51S118.62,98.81,122,97Zm-41.94,48.1L66.27,128.6l-2.11,1.65,9.59,17.55a28.82,28.82,0,0,1-11.13,1.5c-4.88-13.64-14.54-31-38.7-47.36-5.79-3.93-.78-11.11,4.41-7.62,3.2,2.14,14.54,10.61,14.54,10.61l1-1.43S31,90.59,27.43,86.66c-5.22-5.73.63-11.31,5.58-6.47,3.46,3.39,16.18,16.5,16.18,16.5l1.54-1.39S37.82,78.22,34.53,74c-4.77-6.13,2.56-11.41,6.82-6,3,3.86,15.24,20,15.24,20l1.65-1.38s-6.7-13.09-9.53-18.27C45,61.66,52,57.78,55.79,63.57c3.34,5.07,6.69,11.3,10.26,18l.54,16.58,3.22.16c.28-4.46.69-10.85.93-13.43.67-7.1,2.6-10.57,9.79-11.54l1.39,35.44c5.1,7.41,10.82,14.1,17.43,19A55.36,55.36,0,0,1,80.06,145.09Z" />
</svg>