<svg xmlns="http://www.w3.org/2000/svg" viewBox="30 60 90 90">
    <path class="cls-1"
        d="M30.38,147.11l-1.22-5.63,8-2.88,1.65,3.31,7.31-2.5-1.45-3.51,12.39-4.47,1-9.12c-.31-.44-.6-.88-.89-1.33-6.78-1.61-8.19-9.35-5.07-14.14q-.45-2.75-.7-5.79c-4.29-5.61-14-24.84,1.89-28.67-1.7-10.32,6.68-15.14,13-9.93,4.78-9.11,23.75-6.71,24.69,3A7.45,7.45,0,0,1,100,75.78c6.36,2.06,3.12,19.11-1.47,25.24q-.09,2.7-.3,5.1c3.12,5.07,1.9,13.32-4.37,15-.33.53-.67,1-1,1.57l1.51,9.07,12,4.31-1.67,3.8,7.43,2.8,1.91-3.85,6.88,2.47-1.35,5.57ZM75.69,143l13.41-5.9-.91-9.3a59.1,59.1,0,0,1-6.71,5.26l-11.34.22a53.23,53.23,0,0,1-7.06-5.41l-.59,8.94Zm11-22.27A14.53,14.53,0,0,1,77.86,113h-5.1s-1.07,6.21-8.87,7.85a37.37,37.37,0,0,0,7.72,6.38l7.51.24A34.13,34.13,0,0,0,86.71,120.77Zm6.58-25C90.23,89.1,88.17,80.4,88.87,73c-5.58,4.82-21.43,12.3-29.37,8.37-.1,3.65-1.49,8.4-3,12.47a82.73,82.73,0,0,0,1.31,14.37c3.3,3.38,10.34-.14,12.7-3.09l10.69.52c2.61,3.56,7.58,4.62,10.83,3A80.49,80.49,0,0,0,93.29,95.8Z" />
</svg>