<svg xmlns="http://www.w3.org/2000/svg" viewBox="20 60 100 90">
    <path class="cls-1" d="M119.63,102.87A107.16,107.16,0,0,1,129.83,114a76.73,76.73,0,0,1-35.5,20.87l-5.28-9.66c8.58-8.37,8.71-24,.21-32.63A48.51,48.51,0,0,0,69.82,90l-4-7.33a50.4,50.4,0,0,1,5.8-.49l.19-18.07h7.89l-.61,18.4A59.35,59.35,0,0,1,93.46,86l8.62-17.9,6.89,3-8,18.19a79.1,79.1,0,0,1,12.61,8.22l10.54-13.66,6.68,5.36Zm-17.88-4.44c2.53,9.72.58,20.74-5.81,28.36a102,102,0,0,0,24-13.3A86.23,86.23,0,0,0,101.75,98.43Zm-28-3.11c12.83,0,16.42,14.05,11,22l-12-22C73.08,95.35,73.42,95.32,73.77,95.32Zm18.34,58.52L74.88,122.67c-.27,0-.53,0-.81,0a15.64,15.64,0,0,1-6.79-1.43l9,16.06-7,.3L46.48,99.23A51.73,51.73,0,0,0,42.16,103l19.32,34.36-7,.3L37.27,108.33a66.77,66.77,0,0,0-4.28,6l.11.14H33L45,133.58c-10.24-3.38-18.36-8.5-22.61-14.2C29,102.71,40.56,91.11,54.44,85.69L44.31,67.37,50.63,64l47.05,88ZM58.27,92.61a44.46,44.46,0,0,0-5.63,2.58L60,108.33a14.39,14.39,0,0,1,2.68-7.69Z"/>
</svg>