<svg xmlns="http://www.w3.org/2000/svg" viewBox="35 58 80 95">
    <path d="M110.16,123.68l-2.42,6.77s-7.9-1.43-14.67.16-35.44,12.48-35.44,12.48-3.39,3.52-5.67,6c-3.6,4.12-10,2.15-8.08-6.26-1.86-1.71-4-5.91-4-5.91l3.72-5s6,4.86,11.62,3.3c1.72-.48,5.91-1.89,10.89-3.61-4.36-2.27-7.87-4.09-9.18-4.74-6-3-6.85,0-12.25-.76-3.06-.45-5.59-7.61-.08-8.38-1.7-2.29.78-7.77.78-7.77l6-1.62s.94,7.63,10.29,12.49c2.63,1.36,8.33,4.43,14,7.43,8.81-3.12,17-6.07,17-6.07s4.88-6.72,6.25-9.15c6.61-2.72,9.79,3.14,6.76,7C107.9,120.44,110.16,123.68,110.16,123.68Zm-21.5-7.31L64.9,116c1-13-.38-15.4-9.82-18.7-4.43-14.76,3.07-37.74,28.24-34.65s25.38,25.61,18.81,38.86C91.3,102.26,89.87,105.43,88.66,116.37ZM72.24,82.9C62.82,81.74,60.61,96,70.64,97.21,79.81,98.34,81.62,84.05,72.24,82.9Zm17.7,5.3c-6.59-.81-8.14,9.15-1.12,10C95.23,99,96.5,89,89.94,88.2Zm-2.85,49.68,2.63-2.61c9.74,3.92,15.26.59,15.26.59l3.77,5.88s-2.36,4.73-5.09,5.18c4.09,5.44-3.15,10.17-6.65,7.62-1.86-4.88-3.39-8.55-3.39-8.55l-11.36-6,1.9-2.66Z"/>
</svg>