<svg xmlns="http://www.w3.org/2000/svg" viewBox="30 60 90 90">
    <path class="cls-1"
        d="M96.47,105.4a71,71,0,0,1-1,13.94l25.05,17.34L116.16,147l-17.9.05-8.49-16.61a51,51,0,0,1-8.8,7.32l-12.2-.12a50.93,50.93,0,0,1-8.22-6.52L53,147.18l-21,0-3.25-9.83L53.7,120.06c-1.68-5.22-2.11-11.42-2.21-19.56a74.58,74.58,0,0,0-20.76,5L26,100.07C38.48,92,37.35,51.81,71.4,51.81c8.43,0,15.19,1.66,20.67,4.42L84.3,71.29c-10.21-.75-14.15,15.33-3.68,18.13,10.23,2.75,14.84-7.65,11.06-13.88l6.94-15.06c18.4,15.08,17.58,45,25.35,50l-4,5.49A108.1,108.1,0,0,0,96.47,105.4Zm-39.63-5.32c.17,18.12,1.7,24.26,13.6,32l8.58.13c10.52-7.15,12.07-13.12,12.3-28.29A113.85,113.85,0,0,0,56.84,100.08Z" />
</svg>