<svg xmlns="http://www.w3.org/2000/svg" viewBox="0 0 4.42 4.99">

  <path d="M3.5 4.38c0.03,0.46 -0.01,0.6 -0.01,0.6l-0.57 0.01c0,0 0.02,-0.19 0.06,-0.53 0.21,-1.37 0.93,-0.89 1.14,-2.87 0.27,0.03 0.34,0.67 0.27,1.05 -0.09,0.52 -0.91,1.28 -0.89,1.74zm-0.77 -0.45c-0.19,1.12 -1.26,0.93 -1.31,0.23 -0.11,-1.31 -0.63,-1.01 -0.67,-2.33 -0.07,-2.73 3.5,-2.2 2.92,0.24 -0.29,1.19 -0.81,1.08 -0.94,1.86zm-1.4 -2.52c-0.27,0.09 -0.22,0.88 0.06,0.75 0.28,-0.14 0.21,-0.83 -0.06,-0.75zm0.32 1.88c0.15,0.77 0.54,0.98 0.64,-0.09 0.05,-0.61 -0.77,-0.53 -0.64,0.08l0 0.01zm1 -1.72c-0.33,-0.07 -0.52,0.64 -0.13,0.72 0.4,0.08 0.46,-0.65 0.13,-0.72zm-2.27 0.26c0.03,1.27 0.46,1.3 0.63,2.23l0.07 0.78 -0.59 0.01c0,0 0.14,-0.74 -0.14,-1.28 -0.23,-0.44 -0.35,-0.93 -0.35,-1.42 0,-0.32 0.05,-0.64 0.15,-0.94 0.05,-0.14 0.26,-0.23 0.38,-0.23 -0.05,0.21 -0.16,0.58 -0.15,0.85z"/>
</svg>
