<svg xmlns="http://www.w3.org/2000/svg" viewBox="30 60 90 90">
    <path class="cls-1"
        d="M117.46,90.32l-5.26-.42c-.3,2.11-.61,4.28-.93,6.48l-4.27.77,3.71,3.15c-1.11,7.68-2.23,15.51-3.15,22.24l-4,.6,3.41,3.5c-.54,4.13-1,7.66-1.21,10.21-.3,3.15-3.78,12-12.1,11.38-2.37-.17-45-3.78-55.41-4.38-12-.7-10.09-21.58-1.29-21.07l6.25.55c.83-6.51,1.75-13.79,2.61-20.67l4-1-3.38-4.09c.62-5,1.18-9.54,1.64-13.23l5.46-2.2-5-1.89c.2-1.57.35-2.81.45-3.63,1.12-9.13,5.4-13.78,15.67-13.12,9.47.39,45.6,3.19,54.72,4S127.79,91.08,117.46,90.32ZM65.8,69.15c-6.9-.28-9.34.36-10.84,9.66l12.64,3.1v3.54l-13.66.93c-.39,3.13-.89,7.06-1.42,11.36l7,2.16v3.54l-7.92,1.62c-.8,6.4-1.63,13-2.35,18.77L91.2,127c-4.88,16,7.19,19,8.51,9.11.25-1.91.7-5.46,1.25-9.94l-11.51-5.38,1.91-3,10.54.75c.68-5.63,1.44-11.92,2.18-18l-7.9-3.47-.38-2.82,9.16-1c1.4-11.61,2.52-21,2.52-21S80.11,70.06,65.8,69.15Z" />
</svg>