<svg xmlns="http://www.w3.org/2000/svg" viewBox="0 0 5.05 5.27">

  <path d="M2.24 5.27c-0.71,0 -1.3,-0.23 -1.62,-0.6l0.18 -0.21c0.24,0.21 0.82,0.39 1.44,0.39 1.52,0 2.36,-1 2.36,-2.25 0,-1.1 -0.68,-2.16 -2.24,-2.16 -0.01,0 -0.02,0 -0.03,0 -1.04,0 -1.89,0.84 -1.89,1.88 0,0.87 0.52,1.75 1.91,1.75 0.69,0 1.44,-0.53 1.44,-1.5 0,-0.82 -0.65,-1.28 -1.24,-1.28 -0.7,0 -1.13,0.28 -1.23,1.01 -0.06,0.47 0.38,0.89 0.78,0.95 0.47,0.07 0.76,-0.12 0.84,-0.54 0.06,-0.31 -0.12,-0.56 -0.4,-0.58 -0.11,0 -0.21,0.04 -0.3,0.1 0,0.04 0.03,0.11 0.03,0.14 0.35,-0.07 0.4,0.41 0.15,0.48 -0.05,0.01 -0.1,0.02 -0.15,0.02 -0.11,0 -0.22,-0.04 -0.31,-0.11 -0.13,-0.12 -0.2,-0.28 -0.2,-0.45 0,-0.04 0,-0.07 0.01,-0.11 0.05,-0.32 0.39,-0.6 0.83,-0.53 0.53,0.09 0.89,0.49 0.8,1.05 -0.11,0.73 -0.67,1.05 -1.36,0.96 -0.67,-0.1 -1.16,-0.67 -1.16,-1.34 0,-0.05 0,-0.1 0,-0.14 0.08,-0.83 0.81,-1.36 1.51,-1.36 1.21,0 1.83,0.85 1.83,1.73 0,0.93 -0.69,1.93 -1.87,1.93 -1.64,0 -2.35,-1.08 -2.35,-2.18 0,-1.28 1.04,-2.32 2.32,-2.32 0.01,0 0.03,0 0.04,0 1.84,0 2.69,1.29 2.69,2.6 -0.01,1.45 -1,2.67 -2.81,2.67z"/>

</svg>
