<svg xmlns="http://www.w3.org/2000/svg" viewBox="30 60 90 90">
    <path class="cls-1"
        d="M106.63,51.89c-4,3.38-4.89,15.23-4.89,15.23H99s0-9.81-4.75-14.64S81.08,47,81.08,47l.28-3S91.44,43,94.72,39.7c4.51-4.56,4-13,4-13l2.83-.24s.5,9.39,4.39,13.28,13.9,4.27,13.9,4.27l.13,3.13S111.51,47.72,106.63,51.89ZM68.9,34.33c-2.34,2-2.89,9-2.89,9H64.38s0-5.78-2.8-8.63-7.75-3.2-7.75-3.2L54,29.73s5.95-.63,7.88-2.58c2.66-2.68,2.39-7.63,2.39-7.63l1.67-.14s.36,5.46,2.66,7.76,8.13,2.58,8.13,2.58l.08,1.84S71.78,31.88,68.9,34.33ZM60.71,48.08l.08,1.85s-5,.32-7.9,2.77c-2.34,2-2.89,9-2.89,9H48.37s0-5.78-2.8-8.63-7.75-3.2-7.75-3.2L38,48.1s6-.63,7.88-2.58c2.66-2.68,2.4-7.63,2.4-7.63l1.66-.14s.26,5.56,2.56,7.85S60.71,48.08,60.71,48.08Zm2.72,25L60.33,73l-.7-7.61,5.89-.07L64.16,57.2h5.53l3.56,6.9,2.6-6.9h9.59l-.66,7.87L90.86,65l-.35,9.17-4-.16L85.16,97.42c22.3,7.82,22.34,41.81,2.36,50.75l-26.13-.68c-20.61-9.66-18.5-42.09,3.36-49.95Zm1.25,68.15,20,.41c14.63-7.41,14.58-35.93-5.76-39.07l.3-22.28H71.37l-.54,22.37C51,106.18,49.07,134.05,64.68,141.23Zm24-24.58c3.16,7.27.83,16.68-6.88,20.17-1.92,0-11.18,0-14.06.05-6-2.88-8.54-9.13-7.94-15.06C79.62,123.25,71.39,112.42,88.64,116.65Z" />
</svg>