<svg xmlns="http://www.w3.org/2000/svg" viewBox="30 60 90 90">

    <path class="cls-1"
        d="M115.34,123.08c-8.48,0-8.1-12.12-.14-12.12S123.09,123.08,115.34,123.08Zm-.14-25.41c-4.85-.59-3.78-7.47.77-6.91S119.63,98.22,115.2,97.67ZM104.05,81.3c-6.94,0-6.62-9.92-.11-9.92S110.39,81.3,104.05,81.3ZM100,87.76c4.53.56,3.66,7.46-.77,6.91C94.35,94.08,95.42,87.2,100,87.76Zm-.34,29c4.53.56,3.65,7.46-.77,6.91C94,123.08,95.08,116.2,99.63,116.76ZM89.32,135.37c-6.31,0-6-9-.1-9S95.08,135.37,89.32,135.37Zm0-49.85c-6.31,0-6-9-.1-9S95.08,85.52,89.32,85.52ZM85.2,68.67c-4.85-.59-3.78-7.47.77-6.91S89.63,69.22,85.2,68.67ZM78,95.36c-5.33-.65-4.15-8.22.85-7.6S82.82,96,78,95.36ZM74.88,80.67c-4.85-.59-3.78-7.47.77-6.91S79.31,81.22,74.88,80.67Zm0,20.86c5.49.67,4.43,9-.93,8.36C68.08,109.17,69.37,100.85,74.87,101.53ZM63.41,71.15c-8.48,0-8.09-12.12-.13-12.12S71.16,71.15,63.41,71.15Zm-3.6,4c7.21,0,7.16,11,.12,11C52.22,86.18,52.57,75.16,59.81,75.16ZM48.86,95c-4.85-.59-3.78-7.47.77-6.91S53.28,95.56,48.86,95ZM44.2,79.67c-4.85-.59-3.78-7.47.77-6.91S48.63,80.22,44.2,79.67Zm.9,49.46c7.93,0,7.88,12.12.14,12.12C36.76,141.25,37.14,129.13,45.1,129.13ZM34,99.47c-6.94,0-6.63-9.91-.11-9.91S40.29,99.47,34,99.47Zm0,14.29c4.53.56,3.66,7.46-.77,6.91C28.35,120.08,29.42,113.2,34,113.76Zm12.08-3.49c-6.31,0-6-9-.1-9S51.81,110.27,46.05,110.27ZM48.52,123c-4.85-.59-3.78-7.47.77-6.91S52.94,123.54,48.52,123Zm11.64,1.65c7.22,0,7.17,11,.13,11C52.58,135.66,52.93,124.64,60.16,124.64Zm3.49,18.12c4.53.56,3.66,7.46-.77,6.91C58,149.08,59.1,142.2,63.65,142.76Zm-2.68-37c5,.61,4,8.2-.85,7.61C54.79,112.71,56,105.15,61,105.76ZM63.76,90.1c6.42,0,6.38,9.82.11,9.82C57,99.92,57.31,90.1,63.76,90.1Zm7.1,25c6.43,0,6.39,9.81.11,9.81C64.1,124.89,64.42,115.08,70.86,115.08Zm4.45,16c4.53.56,3.66,7.46-.77,6.91C69.69,137.42,70.76,130.54,75.31,131.1ZM88.73,97.21c6.43,0,6.38,9.82.11,9.82C82,107,82.28,97.21,88.73,97.21Zm-3.68,15.14c5,.62,4,8.21-.84,7.61C78.88,119.31,80.05,111.74,85.05,112.35Zm.72,29.14c6.49,0,6.45,9.91.11,9.91C78.94,151.4,79.25,141.49,85.77,141.49Zm17.44-30.22c-7.71,0-7.36-11-.13-11S110.25,111.27,103.21,111.27Zm.76,20.49c4.53.56,3.66,7.46-.77,6.91C98.35,138.08,99.42,131.2,104,131.76Z" />
</svg>