<svg id="Слой_1" data-name="Слой 1" xmlns="http://www.w3.org/2000/svg" viewBox="0 0 150 190"><defs><style>.cls-1{fill-rule:evenodd;}</style></defs><title>Монтажная область 42</title><path class="cls-1" d="M93.71,150c-11,0-18.91-4.13-23.94-10.21-17.57,23.69-53.91,1.69-38.08-26,7.9-13.58,17.49-30.56,17.49-30.56C62.49,60.37,91.06,70.71,93,90.6h0C131.94,90.6,131.7,150,93.71,150Zm-.22-6.81c10.28,0,17-5.65,20-13l-32.77-9.11-7.07,12.35C77.4,139.18,84,143.22,93.49,143.22ZM77.25,80.75c-6.4-3.62-15.41-2.87-21.13,7l-8.7,15.37,25.82,14.77s8.65-15.3,8.74-15.44C87.6,92.48,83.66,84.38,77.25,80.75ZM93,97.41h-.35a29.07,29.07,0,0,1-3.29,8.65l-4.93,8.64,30.88,8.49C116.6,110.87,109.23,97.41,93,97.41Z"/></svg>