<svg xmlns="http://www.w3.org/2000/svg" viewBox="0 0 279.3 460.86">
        <g id="_1953953711136">
            <path class="fil0"
                d="M82.85 80.45l-15.7 -0.41 -3.55 -38.55 29.84 -0.35 -6.89 -41.14 28.01 0 18.03 34.96 13.17 -34.96 48.58 0 -3.34 39.87 30.8 -0.35 -1.77 46.46 -20.26 -0.81 -6.84 118.6c112.97,39.62 113.17,211.81 11.96,257.1l-132.38 -3.44c-104.41,-48.94 -93.72,-213.23 17.02,-253.05l-6.69 -123.92zm6.33 345.25l101.32 2.08c74.12,-37.54 73.86,-182.02 -29.18,-197.93l1.52 -112.87 -39.77 -0 -2.74 113.33c-100.46,17.83 -110.24,159.02 -31.15,195.4z" />
            <path class="fil0"
                d="M210.76 301.18c16.01,36.83 4.2,84.5 -34.85,102.18 -9.73,0 -56.64,0 -71.23,0.25 -30.4,-14.59 -43.26,-46.25 -40.22,-76.29 100.41,7.3 58.71,-47.57 146.1,-26.14l0.2 0z" />
        </g>
</svg>