<svg id="Слой_1" data-name="Слой 1" xmlns="http://www.w3.org/2000/svg" viewBox="0 0 150 190"><defs><style>.cls-1{fill-rule:evenodd;}</style></defs><title>Монтажная область 31</title><path class="cls-1" d="M101.21,147,48.89,147s-.1-41.62-.1-47.71c0-7.74,5.87-18.5,14.31-19.12l-.35-6.62H59.66L59,62.6l4.7-.05-.28-8.44L70,54l3.4,6.59,2.52-6.68L87,53.78l-.39,8.57,4.51,0L90.3,73.4l-3.41,0-.62,7c9.39,1,14.39,10.58,14.24,19.15C100.39,106.7,101.21,147,101.21,147ZM57,121.44,67.1,128.8l-9.55,4.49,2.14,4.5,12.89-5L83.89,141l4.4-4.66-8.88-6.2,10.21-4-3.45-6.31-12.85,6L60.57,117Zm21.33-33.6c-17.62-1.62-23.34,16.81-11,23.57l.22,6.23,13,.76,2-5.3C96,109.1,96.15,89.48,78.29,87.84ZM81.62,107c-4.85-.6-3.78-7.47.77-6.91S86,107.56,81.62,107Zm-11.46-.69c-6.32-.58-4.87-9.66,1.06-9.12S75.93,106.86,70.16,106.33Z"/></svg>