<?xml version="1.0" encoding="UTF-8"?>
<!DOCTYPE svg PUBLIC "-//W3C//DTD SVG 1.1//EN" "http://www.w3.org/Graphics/SVG/1.1/DTD/svg11.dtd">
<!-- Creator: CorelDRAW -->
<svg xmlns="http://www.w3.org/2000/svg" xml:space="preserve" width="21.7682mm" height="21.1853mm" version="1.1" style="shape-rendering:geometricPrecision; text-rendering:geometricPrecision; image-rendering:optimizeQuality; fill-rule:evenodd; clip-rule:evenodd"
viewBox="0 0 454.02 441.86"
 xmlns:xlink="http://www.w3.org/1999/xlink"
 xmlns:xodm="http://www.corel.com/coreldraw/odm/2003">
 <defs>
  <style type="text/css">
   <![CDATA[
    .fil0 {fill:black}
   ]]>
  </style>
 </defs>
 <g id="Layer_x0020_1">
  <metadata id="CorelCorpID_0Corel-Layer"/>
  <path class="fil0" d="M426.48 164.6c-28.92,-0.83 -88.29,-1.43 -88.29,-1.43l-36.75 -45.91 -16.17 53.69 67.43 118.59 21.3 147.18c0,0 -43.6,20.09 -52.2,-19.09 -8.61,-39.18 -25.11,-103.75 -25.11,-103.75l-66.88 -78.42 -53.69 95.08 -172.28 13.02c0,0 -16.06,-41.5 17.6,-48.29 33.66,-6.79 115.89,-21.63 115.89,-21.63l74.22 -208.21 -41.94 -0.77 -58.39 94.53c0,0 -38.9,-7.5 -25.77,-39.62 13.13,-32.12 49.67,-111.91 49.67,-111.91 53.42,-14.62 150.93,-10.54 193.14,32.01l44.7 73.95 81.06 9.38c0,0 -0.39,42.38 -27.54,41.66l0 -0.05z"/>
 </g>
</svg>
