<svg xmlns="http://www.w3.org/2000/svg" viewBox="0 0 9.19 7.46">

  <path d="M0.39 1.65l0 0 0 0zm0 0l0 -0.01 0 0.01zm0 -0.01c0.01,-1.93 2.07,-2.4 2.07,-0.08 0,0.23 0.01,0.47 0.01,0.7l-2.08 -0.26c0,-0.12 0,-0.24 0,-0.35l0 0 0 -0.01 0 0 0 -0.01 0 -0.01 0 0 0 0 0 0.01 0 0.01 0 0zm3.16 0.01l0 0 0 0zm0 0l0 -0.01 0 0.01zm0 -0.01c0,-1.93 2.07,-2.4 2.07,-0.08 0,0.23 0,0.47 0,0.7l-2.07 -0.26 0 -0.35 0 0 0 -0.01 0 0 0 -0.01 0 -0.01 0 0 0 0 0 0.01 0 0.01 0 0zm3.18 0.01c0,-1.94 2.07,-2.41 2.07,-0.09 0,0.23 0,0.47 0.01,0.7l-2.08 -0.26c0,-0.13 0,-0.26 0,-0.38l0 0.03zm2.09 1.67c0.02,1.59 0.06,2.82 0.06,2.82l0.31 1.32 -2.85 -0.09 0.31 -1.36c0,0 0.04,-1.54 0.07,-2.95l2.1 0.26zm-3.18 0c0.02,1.59 0.06,2.82 0.06,2.82l0.31 1.32 -2.85 -0.09 0.31 -1.36c0,0 0.04,-1.54 0.07,-2.95l2.1 0.26zm-3.16 0c0.02,1.59 0.07,2.82 0.07,2.82l0.3 1.32 -2.85 -0.09 0.31 -1.36c0,0 0.05,-1.54 0.07,-2.95l2.1 0.26z"/>
</svg>
