<svg id="Слой_1" data-name="Слой 1" xmlns="http://www.w3.org/2000/svg" viewBox="0 0 150 190">
    <defs>
        <style>
            .cls-1 {
                fill-rule: evenodd;
            }
        </style>
    </defs>
    <title>Монтажная область 14</title>
    <path class="cls-1"
        d="M109.58,103.39l-5.94-10.94,13.61,1.45a57.3,57.3,0,0,1,.35,11Zm-13.3-25,16.8.42a49.58,49.58,0,0,1,3.51,11.1L102,88.48ZM82.6,58.15l.72-16.87,8,1.26-5,16.25Zm-17.72-19,8.27-2.37,4.65,21.8L74,60.34Zm3.53,26.05L55.22,58.41,60,51.78,70.1,62.06ZM89,73l13.79,26c-6.88,4.21-13.31,4.15-18.63-5.59a38.27,38.27,0,0,0-5.77,1.66l-4.26,13,2.74.81,5.83-9.42,2.45,1.73-.86,29.65,11.11,3L97,130.48s-3.39-.66-6.33-1.39c-4.2-1.05-3.33-9.38,2-8.79,3.95.44,14.4,1.7,20.43,2.43a50.32,50.32,0,0,1-14.43,18c-10-.12-33.7.27-33.7.27l-20.4,12.29L25.61,120.44l26.51-15L67.49,77.64Zm5.24,33.07c4.54.27,17.35,1.84,23,2.55A49.32,49.32,0,0,1,114.64,119c-5.51-.49-18.43-1.67-22-2.3C87.35,115.78,88.4,105.75,94.27,106.1Z" />
</svg>