<svg xmlns="http://www.w3.org/2000/svg" viewBox="-0.2 0 1.7 1.7">
  <path d="M0.01 0.65l0.04 0.5c0.08,0.04 0.13,-0.02 0.21,0.09 0.07,0.09 0.04,0.15 0.08,0.23 0.11,0 0.56,-0.22 0.27,-0.62 -0.28,-0.04 -0.16,0 -0.3,0.03 -0.12,0.03 -0.05,0.01 -0.08,-0.01 0.08,-0.09 0.39,-0.11 0.22,-0.42 -0.07,0 -0.41,0.12 -0.44,0.2zm0.6 0.19c0.08,0.02 0.04,0.01 0.11,0.07 0.04,-0.07 0.09,-0.1 0.18,-0.09 -0.13,0.11 -0.2,0.15 -0.15,0.39 0.04,0.16 0.17,0.27 0.34,0.25l-0.05 -0.15c0.17,-0.09 0.13,-0.04 0.21,-0.23l-0.01 -0.26c-0.1,-0.01 0.02,0.05 -0.16,0.01 -0.12,-0.03 -0.44,-0.19 -0.59,-0.07l0.12 0.08zm0.35 -0.16c0.06,-0.11 0.08,-0.31 0.11,-0.44 0.04,-0.18 -0.08,-0.25 -0.25,-0.2 -0.04,0.06 -0.07,0.52 -0.06,0.64l0.2 0zm-0.26 -0.65c-0.22,-0.07 -0.34,-0.01 -0.29,0.24 0.02,0.15 0.04,0.04 0.1,0.14 0.05,0.08 0.03,0.17 0.04,0.26l0.15 -0.03 0 -0.61zm0.53 0.73c0.07,-0.11 0.13,-0.27 0.17,-0.4 -0.06,-0.09 -0.14,-0.14 -0.25,-0.13l-0.11 0.47 0.19 0.06zm-0.78 0.78c0.04,0.12 0.08,0.12 0.21,0.13 0.13,0 0.2,0.02 0.28,-0.07 -0.02,-0.06 -0.17,-0.22 -0.22,-0.26 -0.01,0 -0.27,0.2 -0.27,0.2zm-0.35 -1.06c0.08,0.01 0.19,-0.04 0.26,-0.08l-0.06 -0.3c-0.11,-0.05 -0.2,0.04 -0.3,0.11l0.1 0.27z"/>

</svg>
