<svg xmlns="http://www.w3.org/2000/svg" width="32" height="32" viewBox="0 0 32 32">
    <path
        d="M4.457 24.201c.154-.066.351-.044.417.022.088.066-.044.132-.285.11-.241 0-.307-.066-.132-.132zM26.691 12.37c0-.241.066-.307.132-.132.066.154.044.351-.022.417-.066.088-.132-.044-.11-.285zM16.572 31.378c-.307-.088-1.361-.11-2.327-.044-1.492.088-1.953.022-2.744-.351-.527-.241-1.471-.68-2.107-.966-1.251-.549-1.383-.724-.724-.944.241-.066.439-.241.439-.351 0-.132.11-.154.219-.088.132.088.219-.198.219-.68 0-.724.044-.79.505-.658.263.066.768.132 1.097.132.351 0 .571.088.483.219-.066.132-.044.219.088.219.11 0 .285-.088.351-.219.198-.329.944-.263 1.141.11.154.241.724.329 2.546.373 1.712.044 2.349.132 2.349.329 0 .329.966.615 1.317.395.132-.088.176-.329.11-.571-.088-.263-.044-.417.154-.417.176 0 .746-.198 1.251-.461.9-.417.966-.439 1.361-.066.219.198.417.615.417.9s.154.571.329.637c.176.088.329.285.329.483 0 .176-.066.263-.132.198-.088-.088-.417.066-.768.307-.329.241-.922.549-1.295.658-.351.132-.658.329-.658.417 0 .11-.571.241-1.251.329-.702.066-1.471.176-1.712.198-.241.044-.68 0-.988-.088zM2.086 22.972c-.307-.615-.615-1.185-.68-1.251s-.395-1.141-.724-2.414c-.636-2.568-.768-4.609-.263-4.609.154 0 .417-.154.593-.351.219-.285.219-.439-.11-.988-.373-.636-.373-.724 0-2.217.198-.878.505-1.822.658-2.129.176-.307.307-.68.307-.834 0-.636.571-.373.768.351.219.724.307.79 1.185.9.988.11 1.427.549.812.79-.198.066-.351.263-.351.417s-.198.9-.461 1.668c-.417 1.251-.439 1.734-.329 4.456.11 2.151.241 3.161.461 3.49.176.263.329.702.329.988 0 .263.154.549.329.615.505.198.417 1.251-.132 1.58-.307.198-.417.219-.307.044.132-.198.044-.198-.285-.022-.263.132-.527.351-.593.461-.285.461-.68.176-1.207-.944zm2.415-.593c0-.11-.11-.219-.241-.219-.11 0-.154.11-.088.219.066.132.176.219.241.219.044 0 .088-.088.088-.219zm-3.293-7.243c0-.11-.11-.219-.241-.219-.11 0-.154.11-.088.219.066.132.176.219.241.219.044 0 .088-.088.088-.219zM29.412 30.456a25.5 25.5 0 0 0-2.195-1.295c-3.204-1.668-3.402-1.822-3.402-2.436 0-.219.154-.658.351-.944.198-.307.285-.549.198-.549-.395 0 1.097-1.075 1.624-1.163.571-.11 1.361.154 1.317.461-.066.285.746 2.019.944 2.019.088 0 .176.176.176.395 0 .198.351.746.768 1.185.724.746 1.141 1.536 1.317 2.414.132.615-.154.593-1.097-.088zM3.886 8.068a1.033 1.033 0 0 1-.263-.658c0-.483-.461-1.492-.68-1.492-.11 0-.241-.351-.329-.768-.066-.417-.219-.834-.329-.9s-.154-.219-.088-.329c.088-.11.044-.198-.066-.198-.132 0-.329-.263-.461-.593-.132-.351-.483-1.054-.79-1.58C.024.036.068.014 2.109 1.221c.593.351 1.449 1.01 2.327 1.778.439.373 1.054.768 1.361.834 1.054.263 1.273.724 1.054 2.085-.198 1.163-.263 1.251-1.054 1.602-.483.198-1.075.373-1.361.395-.461 0-.461.022-.044.198.307.132.329.198.11.198-.198.022-.461-.088-.615-.241zm2.59-2.809a.22.22 0 0 0-.219-.219c-.11 0-.219.11-.219.219 0 .132.11.219.219.219.132 0 .219-.088.219-.219zM25.747 7.388c-.198-.154-.417-.658-.505-1.097s-.263-.812-.417-.812c-.176 0-.176-.044 0-.176.154-.088.285-.351.329-.593.066-.285.615-.702 1.624-1.207.856-.417 1.602-.856 1.668-.944.154-.219.922-.68 1.712-1.032.285-.132.768-.417 1.075-.658s.593-.395.637-.351c.132.132-.417 1.668-.593 1.668-.088 0-.263.351-.439.768s-.351.768-.439.768c-.241 0-1.756 2.173-1.756 2.524 0 .461-.549 1.01-.922.944-.154-.044-.263.044-.241.176.066.329-1.295.351-1.734.022zM28.183 24.64c-.022-.11-.044-.263-.066-.395-.044-.439-.483-.9-1.075-1.163-.483-.198-.549-.329-.395-.637.966-1.8 1.536-6.826 1.119-9.767-.549-3.819-.549-3.622.022-3.907.285-.154.615-.417.702-.571.351-.593.724-.285 1.339 1.075.9 1.888 1.229 3.292 1.229 5.026 0 1.141-.088 1.536-.329 1.624-.373.154-.461.966-.11.966.395 0 .768 1.075.483 1.361-.154.154-.263.637-.263 1.097s-.088.834-.198.834-.307.505-.461 1.119c-.154.614-.417 1.163-.571 1.229-.176.066-.307.241-.307.417s-.11.307-.219.307c-.219 0-.768 1.054-.702 1.383.022.088 0 .154-.066.154s-.132-.066-.132-.154zm1.998-12.665c0-.044-.066-.241-.132-.439-.198-.505-.527-.439-.527.088 0 .241.154.439.329.439s.329-.044.329-.088z">
    </path>
    <path
        d="M13.083 26.857c-.176-.219-.527-.307-.944-.263-.351.066-.68.022-.746-.088-.066-.088-.395-.176-.768-.176-.351 0-.636-.088-.636-.176s-.351-.307-.768-.461c-.417-.154-.768-.351-.768-.461s-.176-.241-.417-.329c-.395-.11-2.217-2.546-2.217-2.963 0-.11-.154-.329-.329-.527-.351-.351-.615-1.361-1.01-3.973-.263-1.646-.132-4.697.198-4.917.11-.066.263-.593.351-1.185.088-.571.241-1.032.351-1.032.132 0 .351-.351.527-.768.417-.988 3.49-3.973 4.631-4.521.483-.219 1.251-.417 1.69-.417s1.383-.154 2.085-.329c1.866-.483 2.414-.439 2.568.219.154.636.395.68.856.219.527-.505 2.085-.263 3.907.636 3.556 1.734 4.917 3.973 5.07 8.319 0 .329.088.593.176.593.329 0 .461 1.602.219 2.722a10.45 10.45 0 0 1-.658 2.019c-.241.461-.439 1.032-.439 1.251s-.088.351-.198.263c-.11-.066-.263.088-.351.329-.066.241-.329.549-.571.658-.219.132-.417.373-.417.549s-.132.395-.285.483c-.154.088-.571.593-.944 1.119-.439.637-.9 1.01-1.449 1.185-.461.132-.834.329-.834.417s-.307.219-.68.307c-.373.088-.988.439-1.405.79-.549.505-1.01.658-2.063.768-1.141.132-1.339.11-1.339-.219 0-.461-1.207-.483-1.405-.022-.154.417-.593.417-.988-.022zM.111 31.729c0-.176.154-.373.351-.439.198-.088.307-.285.219-.461-.066-.176-.022-.329.088-.329.132 0 .219-.154.219-.329 0-.198.132-.395.307-.461s.395-.439.483-.812c.066-.395.329-.944.549-1.229.241-.285.417-.637.417-.768 0-.154.307-.593.68-.966.417-.417.658-.856.593-1.075-.088-.351.044-.395 1.097-.329 1.361.044 2.678.834 2.678 1.602 0 .263-.088.373-.241.285-.176-.088-.198 0-.088.329.154.527-.132.878-1.032 1.273-.351.154-.615.351-.615.461s-.395.307-.878.461c-.483.132-.878.351-.878.461 0 .088-.285.241-.636.329-.351.066-.702.285-.768.461s-.241.307-.395.307-.68.351-1.141.768c-.988.878-1.01.878-1.01.461zm5.487-6.519c0-.11-.154-.198-.329-.198s-.329.154-.329.329c0 .198.132.263.329.198.176-.088.329-.219.329-.329z">
    </path>
    <path
        d="M22.718 5.061c0-.11-.307-.263-.68-.351s-.724-.285-.79-.439c-.044-.176-.571-.373-1.119-.461-.571-.088-1.361-.329-1.756-.549-.768-.439-1.471-.527-1.668-.219-.066.11-.658.198-1.295.219-.658 0-1.471.11-1.822.241s-.658.241-.702.219c-.198-.132-2.831.329-3.292.571-.746.395-1.361.395-1.361.022 0-.351-.922-1.251-1.273-1.251-.154 0-.263-.198-.263-.439 0-.307.154-.439.527-.439.285 0 .636-.154.79-.329.132-.176.461-.373.724-.461s.593-.263.746-.417C9.769.671 11.372.385 13.106.32c.593-.022 1.119-.11 1.207-.176.219-.219 4.631-.176 4.763.044.066.11.922.263 1.888.351s1.69.241 1.624.351c-.066.11.088.198.329.198s.483.088.571.219c.066.11.263.154.439.066.176-.066.329 0 .329.132s.241.351.549.461c.527.198.812 1.097.329 1.097-.351 0-1.251 1.032-1.405 1.624-.088.373-.285.571-.571.571-.241 0-.439-.088-.439-.198z">
    </path>
</svg>